<?xml version="1.0" standalone="no"?>
<!DOCTYPE svg PUBLIC "-//W3C//DTD SVG 20010904//EN"
 "http://www.w3.org/TR/2001/REC-SVG-20010904/DTD/svg10.dtd">
<svg version="1.0" xmlns="http://www.w3.org/2000/svg"
 width="48.000000pt" height="48.000000pt" viewBox="0 0 48.000000 48.000000"
 preserveAspectRatio="xMidYMid meet">

<g transform="translate(0.000000,48.000000) scale(0.100000,-0.100000)"
fill="#000000" stroke="none">
<path d="M207 423 c-4 -3 -7 -13 -7 -21 0 -18 -70 -105 -124 -154 -32 -30 -38
-40 -28 -50 15 -15 16 -50 1 -65 -20 -20 -2 -46 27 -39 15 4 47 0 76 -10 27
-9 51 -14 54 -12 2 3 -22 13 -53 22 -62 20 -82 38 -83 74 0 17 6 22 28 23 16
1 20 3 9 6 -9 2 -17 12 -17 22 0 25 110 161 130 161 9 0 20 4 26 10 14 14 148
-22 152 -42 3 -16 -127 -182 -136 -173 -3 2 -10 0 -17 -5 -8 -7 -27 -5 -59 6
-26 9 -49 14 -52 12 -2 -3 16 -11 41 -18 24 -7 50 -19 56 -26 18 -22 49 -17
49 7 0 21 134 189 150 189 14 0 12 37 -1 46 -6 3 -15 2 -21 -4 -11 -11 -143
19 -161 37 -12 12 -30 14 -40 4z"/>
<path d="M410 266 c0 -15 -25 -55 -65 -104 -49 -61 -72 -82 -97 -88 -18 -4
-27 -9 -20 -11 6 -3 12 -11 12 -20 0 -9 8 -13 23 -11 13 2 22 10 21 19 -1 9
30 56 67 104 41 52 69 98 69 112 0 12 -2 23 -5 23 -3 0 -5 -11 -5 -24z"/>
</g>
</svg>
